/* XPM */
static char *_76c71c160a247b7b0f6ff9734f9b862XcLOY033RIJiAvX7[] = {
/* columns rows colors chars-per-pixel */
"32 32 51 1 ",
"  c #98CDE9",
". c #120C0A",
"X c #231C19",
"o c #351424",
"O c #352B26",
"+ c #242B33",
"@ c #69061E",
"# c #67332D",
"$ c #14462D",
"% c #0A7030",
"& c #032659",
"* c #322447",
"= c #6F2C77",
"- c #135C41",
"; c #3D4857",
": c #237B59",
"> c #3A747C",
", c #AF101B",
"< c #DD3013",
"1 c #B66B3A",
"2 c #0548c3",
"3 c #864646",
"4 c #001156",
"5 c #B56B5F",
"6 c #E65F69",
"7 c #03991F",
"8 c #4DBD27",
"9 c #071fa6",
"0 c #95D836",
"q c #03a6bf",
"w c #FFFC32",
"e c #D89E58",
"r c #636B85",
"t c #1950C0",
"y c #B73D94",
"u c #51A985",
"i c #4C85B9",
"p c #1498DC",
"a c #10D3C3",
"s c #838BA9",
"d c #F49990",
"f c #f7bb5b",
"g c #E7B09C",
"h c #F3CF95",
"j c #E2CFA4",
"k c #FAD3B3",
"l c #AEB4CE",
"z c #B4BAFB",
"x c #A0FCD8",
"c c #D7DEE8",
"v c white",
/* pixels */
"                                ",
"                                ",
"                                ",
"                                ",
"                                ",
"         XXXXXXXXXXXXXX         ",
"       XXqqqqqqqqqqqqqqXX       ",
"      XqqqqqqqqqqqqqqqqqqX      ",
"     Xq999qqqqqqqqqq99999qX     ",
"    Xq9999qqqqqqqqqq9qqq99qX    ",
"    Xq99q999999999999qqq99qX    ",
"    Xq99q999999999999qqq99qX    ",
"    Xq999992222222222qqq99qX    ",
"    Xq999992222222222qqq99qX    ",
"    X2992292222222222999992X    ",
"    X2992292222222222999992X    ",
"    X2292299999999999929922X    ",
"    X2292299999999999929922X    ",
"     X22222222222222222222X     ",
"     X22222222222222222222X     ",
"      XXXXXXXXXXXXXXXXXXXX      ",
"      XXXXXXXXXXXXXXXXXXXX      ",
"        X44444444444444X        ",
"       XXXffffffffffff4XX       ",
"      X4ffXffffffffff44XfX      ",
"      X444X444444444444X4X      ",
"       XXXXXXXXXXXXXXXXXX       ",
"                                ",
"                                ",
"                                ",
"                                ",
"                                "
};
