/* XPM */
static char *_a02bc01f68d49ddde49272633b59a38bXCxPkuLlpjOs0L9[] = {
/* columns rows colors chars-per-pixel */
"31 32 12 1 ",
"  c #98CDE9",
". c #080103",
"X c #330617",
"o c #520C13",
"O c #731513",
"+ c #771F21",
"@ c #2F1550",
"# c #811F1B",
"$ c #972318",
"% c #B52F1D",
"& c #4B44A1",
"* c #765CA2",
/* pixels */
"     .....................     ",
"    .......................    ",
"  ..$%#%%%%%%%%%%%%%%%%#%%$..  ",
"  ..$%#%%%%%%%%%%%%%%%%#%%$..  ",
"  .$ooooooooooooooooooooooo$.. ",
" .$ooooooooooooooooooooooooo$. ",
" XXoOOo+OOOOOOOoOOOOOOOoOOOoXX ",
" XXoOOo+OOOOOOOoOOOOOOOoOOOoXX ",
" XXOOOo+OOOOOOOoOOOOOOOoOOOOXX ",
" XXOOOo+OOOOOOOoOOOOOOOoOOOOXX ",
" XX+OOoO+OOOOOOoOOOOOOOoOOOOXX ",
" XX+OOoO+OOOOOOoOOOOOOOoOOOOXX ",
" XX+O+oO+OOOOO+oOOOOOOOoOO@OXX ",
" XX+O+oO+OOOOO+oOOOOOOOoOO@OXX ",
" XXOO+oO+OOOOO+oOOOOOOOoO@&@XX ",
" XXOO+oO+OOOOO+oOOOOOOOoO@&@XX ",
" XXOO+oOOOOOOO+oOOOOOOOoO@&*XX ",
" XXOO+oOOOOOOO+oOOOOOOOoO@&*XX ",
" XXOO+oOOOOOOO+oOOOOOOOoO@&*XX ",
" XXOO+oOOOOOOO+oOOOOOOOoO@&*XX ",
" XXOO+oOOOOOOO+oOOOOOOOoO@&&XX ",
" XXOO+oOOOOOOO+oOOOOOOOoO@&&XX ",
" XX+OOoO+OOOOOOoOOOOOOOoO@&@XX ",
" XX+OOoO+OOOOOOoOOOOOOOoO@&@XX ",
" XX+OOoO+OOOOOOoOOOOOOOoOO@OXX ",
" XX+OOoO+OOOOOOoOOOOOOOoOO@OXX ",
" XXOOOoO+OOOOOOoOOOOOOOoOOOOXX ",
" XXOOOoO+OOOOOOoOOOOOOOoOOOOXX ",
" XXOOOoOOOOOOOOoOOOOOOOoOOOOXX ",
" XXOOOoOOOOOOOOOOOOOOOOoOOOOXX ",
"   XXXXXXXXXXXXXXXXXXXXXXXXX   ",
"   XXXXXXXXXXXXXXXXXXXXXXXXX   "
};
