/* XPM */
static char *d08b2087802d4103d3fef8d19f0a3a9cmDKQlGPlF1Extw8c[] = {
/* columns rows colors chars-per-pixel */
"32 32 6 1 ",
"  c #98CDE9",
". c #211F30",
"X c #62677A",
"o c #858D99",
"O c #AFBBC3",
"+ c #D8E1E4",
/* pixels */
"                                ",
"                                ",
"                                ",
"                .               ",
"               .+.              ",
"              .+Oo.             ",
"             .Ooooo.            ",
"       ....  .......  ....      ",
"       .+Oo..OOOOooo..oO+.      ",
"       .Oo.OOooooooooX.oO.      ",
"       .o.OoooooooooooX.o.      ",
"        .OoOOoooooooooXX.       ",
"        .ooOOooooooooooX.       ",
"      ..OooooooooooooooXX..     ",
"     .O.ooOooooooooooooXX.O.    ",
"    .+o.oooooooooooooooXX.o+.   ",
"   .+Oo.oooooooooooooXoXX.oO+.  ",
"    .oo.oooooooooooooooXX.oo.   ",
"     .o.ooooooooooooooXXX.o.    ",
"      ..XooooooooooXXoXXX..     ",
"        .ooooooooXoXXoXX.       ",
"        .XXooooooooooXXX.       ",
"       .o.XXXoooooXXXXX.o.      ",
"       .Oo.XXXXXXXXXXX.oO.      ",
"       .+Oo..XXXXXXX..oO+.      ",
"       ....  .......  ....      ",
"             .Ooooo.            ",
"              .+Oo.             ",
"               .+.              ",
"                .               ",
"                                ",
"                                "
};
