/* XPM */
static char *_ec5cff0b82e4f52dc0e13ff57113d61vUgOI3wueC3jQB8y[] = {
/* columns rows colors chars-per-pixel */
"38 38 9 1 ",
"  c None",
". c #211F30",
"X c #A14744",
"o c #B96E54",
"O c #CF9E6E",
"+ c #858D99",
"@ c #E4C997",
"# c #AFBBC3",
"$ c #D8E1E4",
/* pixels */
"                   .....              ",
"                 ..$$###.             ",
"        ..      .$$####.              ",
"       .$.     .$#####.               ",
"      .$#.     .$#####.               ",
"     .$##.     .######.     .....     ",
"     .$###.  ..########..  .$$$##.    ",
"     .#####..############..$######.   ",
"     .##########################+++.  ",
"     .+########################+....  ",
"      .+######################+.      ",
"       .######################.       ",
"       .######################.       ",
" .    .########################.      ",
".$.   .##########$$$$##########.      ",
".#$...##########$....$##########...   ",
".##$$$#########+.@OOO.+###########$.  ",
".#############+.@OOO.X.+###########$. ",
".#############+.OOOXoX.+###########$. ",
" .############+.OOXooX.+############$.",
" .+###########+.O.ooXX.+############$.",
"  .+++#########+.XXXX.+#########+++##.",
"   ...+#########+....+#########+...+#.",
"      .##########++++##########.   .+.",
"      .########################.    . ",
"       .######################.       ",
"       .######################.       ",
"      .$######################$.      ",
"  ....$########################$.     ",
"  .#############################.     ",
"   .+#####+..++########++..+####.     ",
"    .+++++.  ..+######+..  .+###.     ",
"     .....     .+#####.     .+#+.     ",
"               .+#####.     .++.      ",
"               .+####+.     .+.       ",
"              .+###++.      ..        ",
"             .+++++..                 ",
"              .....                   "
};
