/* XPM */
static char *_8e06f9a04814869d9ad6098638321a7cS6T2ngP3zlAi0eb[] = {
/* columns rows colors chars-per-pixel */
"32 32 10 1 ",
"  c #98CDE9",
". c #211F30",
"X c #076029",
"o c #9C1B4D",
"O c #CC3048",
"+ c #E44A4A",
"@ c #28860F",
"# c #72A11D",
"$ c #A4CC42",
"% c white",
/* pixels */
"                                ",
"                                ",
"     ...   ......   ....        ",
"    .+++. .######. .####.       ",
"    .OOOo................       ",
"     ..o.oO+++O+OOOO+O+++.      ",
"    .Oo....oooOoOOOOoOoo..      ",
"    .+O.ooOOOOOOOOOOOOOOO.      ",
"    .+O...................      ",
"    .+..@@@@X%%%%X@X%%%%X@.     ",
"     ..@####@XXXX@#@XXXX@#.     ",
"      .###################.     ",
"      .#####XXXXXXXXXXXX##.     ",
"      .####@############@#.     ",
"      .#########@@@@@#####.     ",
"       .@###############@.      ",
"        .@@###########@@.       ",
"         ..###########..        ",
"          .###$$$$$$$#.         ",
"         .###$$$$$$$$$#.        ",
"        .####$$$$$$$$$#..       ",
"       .@####$$$$$$$$$#.@.      ",
"       .@#@.#$$$$$$$$$#.@.      ",
"       .@@.###$$$$$$$###..      ",
"        ..@###.......###.       ",
"         .@###.    .@##@.       ",
"         .@##.     .@@@.        ",
"         .@#@.      ...         ",
"         .@@.                   ",
"          ..                    ",
"                                ",
"                                "
};
