/* XPM */
static char *_d0c0029e6364956f1c2779e350dcc35Dl2yEri71cg0X9Pn[] = {
/* columns rows colors chars-per-pixel */
"32 32 10 1 ",
"  c #98CDE9",
". c #211F30",
"X c #076029",
"o c #9C1B4D",
"O c #CC3048",
"+ c #E44A4A",
"@ c #28860F",
"# c #72A11D",
"$ c #A4CC42",
"% c white",
/* pixels */
"                                ", 
"                                ", 
"        ....   ......   ...     ",  
"       .####. .######. .+++.    ",  
"       ................oOOO.    ",   
"      .+++O+OOOO+O+++Oo.o..     ",  
"      ..ooOoOOOOoOooo....oO.    ",  
"      .OOOOOOOOOOOOOOOOoo.O+.   ",   
"      ....................O+.   ",
"     .@X%%%%X@X%%%%X@@@@..+.    ",  
"     .#@XXXX@#@XXXX@####@..     ",  
"     .###################.      ",  
"     .##XXXXXXXXXXXX#####.      ",  
"     .#@############@####.      ",  
"     .#####@@@@@#########.      ",  
"      .@###############@.       ",  
"       .@@###########@@.        ",  
"        ..###########..         ",  
"         .#$$$$$$$###.          ",  
"        .#$$$$$$$$$###.         ",  
"       ..#$$$$$$$$$####.        ",  
"      .@.#$$$$$$$$$####@.       ",  
"      .@.#$$$$$$$$$#.@#@.       ",  
"      ..###$$$$$$$###@@.        ",  
"       .###.......###@..        ",   
"       .@##@.    .###@.         ",   
"        .@@@.     .##@.         ",   
"         ...      .@#@.         ",   
"                   .@@.         ",   
"                    ..          ",
"                                ", 
"                                "
};
